PathFileType	4	(X/Y/Z)	C:\Users\dbl\Desktop\20210112\20210112\bx_n_5_501.trc
DataRate	CameraRate	NumFrames	NumMarkers	Units	OrigDataRate	OrigDataStartFrame	OrigNumFrames
50.00	50.00	       4	43	mm	50.00	324	       517
Frame#	Time	Top.Head			R.Acromium			L.Acromium			Sternum			R.ASIS			L.ASIS			V.Sacral			R.Thigh.Upper			R.Thigh.Front			R.Thigh.Rear			R.Knee.Lat			R.Knee.Med			R.Shank.Upper			R.Shank.Front			R.Shank.Rear			R.Ankle.Lat			R.Midfoot.Lat			R.Toe.Lat			R.Toe.Tip			R.Toe.Med			R.Ankle.Med			R.Midfoot.Sup			R.Heel			L.Thigh.Upper			L.Thigh.Front			L.Thigh.Rear			L.Knee.Lat			L.Knee.Med			L.Shank.Upper			L.Shank.Front			L.Shank.Rear			L.Ankle.Lat			L.Midfoot.Lat			L.Toe.Lat			L.Toe.Tip			L.Toe.Med			L.Ankle.Med			L.Midfoot.Sup			L.Heel			origin1 front left			origin2 front right			origin 3 back right			origin 4 back leftt			
		X1	Y1	Z1	X2	Y2	Z2	X3	Y3	Z3	X4	Y4	Z4	X5	Y5	Z5	X6	Y6	Z6	X7	Y7	Z7	X8	Y8	Z8	X9	Y9	Z9	X10	Y10	Z10	X11	Y11	Z11	X12	Y12	Z12	X13	Y13	Z13	X14	Y14	Z14	X15	Y15	Z15	X16	Y16	Z16	X17	Y17	Z17	X18	Y18	Z18	X19	Y19	Z19	X20	Y20	Z20	X21	Y21	Z21	X22	Y22	Z22	X23	Y23	Z23	X24	Y24	Z24	X25	Y25	Z25	X26	Y26	Z26	X27	Y27	Z27	X28	Y28	Z28	X29	Y29	Z29	X30	Y30	Z30	X31	Y31	Z31	X32	Y32	Z32	X33	Y33	Z33	X34	Y34	Z34	X35	Y35	Z35	X36	Y36	Z36	X37	Y37	Z37	X38	Y38	Z38	X39	Y39	Z39	X40	Y40	Z40	X41	Y41	Z41	X42	Y42	Z42	X43	Y43	Z43	

324	6.460	-347.80206	125.03654	1723.18823	-514.67682	-62.37625	1463.76440	-527.90051	294.82269	1465.04187	-536.08990	109.39148	1267.81860	-679.17914	-3.87028	1041.15771	-688.43494	242.54250	1056.48291	-877.81256	92.57677	1080.63586	-750.83105	-72.48558	874.97137	-668.99377	-6.91977	809.02185	-760.51587	-63.31504	757.63123	-764.82178	-39.01939	616.04926	-747.99280	70.44768	571.95508	-767.98944	-36.37207	568.03088	-712.58990	12.72847	525.99341	-800.09680	-49.85984	483.90100	-762.33423	-23.87238	205.77640	-649.11578	-68.97068	160.52245	-605.90155	-74.24029	156.97549	-549.59216	-22.83719	162.00607	-601.11121	27.19706	168.50313	-724.16772	65.52871	219.52005	-675.44550	51.05181	161.95021	-794.65936	35.74564	174.97850	-779.32068	282.17947	874.72937	-673.04938	227.40492	798.34796	-771.93115	273.05792	743.02588	-789.14197	253.98596	639.24365	-745.62708	146.60764	575.42236	-782.59399	250.66653	573.03571	-723.85620	208.60976	538.87189	-812.42743	262.35440	495.36606	-771.73151	230.48526	203.32048	-660.66785	298.81396	156.59772	-623.68677	306.55600	158.76190	-556.64166	254.24826	163.70683	-593.26495	218.25879	173.73834	-717.46796	156.45450	220.21950	-676.58844	173.94382	160.78310	-797.83673	181.11594	183.03386	-527.95032	304.13986	146.44319	-517.92181	-72.94418	143.14481	-875.87201	-78.62401	141.19687	-882.54492	296.24042	144.81583	
325	6.480	-338.35431	125.70284	1714.21863	-508.05820	-61.87043	1457.20410	-522.72626	294.59052	1458.92786	-533.82178	109.54996	1261.65930	-682.28607	-3.91737	1040.07434	-692.22186	242.53868	1055.64978	-880.44293	91.69986	1081.22827	-753.83472	-72.71412	874.71454	-671.94189	-6.88940	808.98602	-762.82001	-63.86600	757.52606	-766.76550	-39.43956	615.80432	-750.07947	70.15096	571.83929	-769.72852	-36.80671	567.76288	-714.29279	12.50569	526.00507	-801.42596	-50.38412	483.53278	-762.45453	-23.99320	205.54462	-649.13098	-69.05531	160.49254	-605.87079	-74.26743	156.85780	-549.72424	-22.75555	161.97002	-601.15033	27.13045	168.51418	-724.51349	65.22813	219.51010	-675.63416	50.95726	162.09283	-794.75299	35.51431	174.84242	-783.26904	282.05792	874.51727	-676.59216	227.35638	798.54083	-775.20508	273.14255	742.79248	-791.72369	253.80632	638.98236	-747.68884	146.51192	575.28925	-784.79260	250.48026	572.75128	-725.83691	208.52977	538.91852	-814.21149	262.25565	494.99524	-771.94171	230.52818	203.32155	-660.71558	298.84537	156.54883	-623.69214	306.55206	158.75638	-556.78149	254.26039	163.69586	-593.35919	218.37431	173.76868	-717.72412	156.41911	220.43190	-676.53052	174.00513	160.97639	-797.88025	181.11948	182.99356	-527.97778	304.14374	146.42534	-517.89703	-72.90176	143.11301	-875.87347	-78.61486	141.21130	-882.58691	296.18732	144.79646	
326	6.500	-329.26501	126.28689	1705.11462	-501.58475	-61.32842	1450.46680	-517.83679	294.39355	1452.75098	-531.83905	109.82231	1255.39661	-685.39014	-4.09437	1038.92651	-695.90814	242.49753	1054.77454	-883.10010	90.82829	1081.84241	-756.94720	-72.91444	874.38422	-674.94965	-6.94699	808.93610	-765.22601	-64.36334	757.35742	-768.70667	-39.88093	615.47632	-752.11462	69.88673	571.69781	-771.42999	-37.21132	567.51947	-715.96179	12.27711	525.97681	-802.77930	-50.90157	483.12598	-762.56915	-24.16324	205.28516	-649.14423	-69.12901	160.43861	-605.88275	-74.27461	156.73039	-549.81219	-22.61392	161.97194	-601.22327	27.05728	168.49048	-724.86041	64.98521	219.52072	-675.79773	50.89212	162.22212	-794.85162	35.25465	174.68312	-787.10175	281.86823	874.27509	-680.06793	227.17436	798.61798	-778.37451	273.23669	742.57336	-794.31213	253.60895	638.67139	-749.78400	146.35756	575.21906	-787.01404	250.24940	572.43378	-727.85010	208.45715	538.89172	-816.00916	262.15344	494.62811	-772.11951	230.55275	203.30330	-660.74774	298.87082	156.51886	-623.68787	306.55881	158.75938	-556.94080	254.24425	163.69807	-593.47803	218.46881	173.80524	-718.04010	156.37910	220.60403	-676.49280	174.05026	161.10988	-797.94092	181.13647	182.94954	-528.01563	304.17026	146.41843	-517.88129	-72.88903	143.10503	-875.87286	-78.61639	141.20952	-882.58801	296.15845	144.77232	
327	6.520	-320.54477	126.83092	1695.92603	-495.29645	-60.74299	1443.58289	-513.16187	294.32394	1446.52502	-530.18170	110.18420	1249.12805	-688.47327	-4.38299	1037.73083	-699.43048	242.32372	1053.80823	-885.85620	90.07341	1082.45935	-760.11139	-73.16252	873.98853	-677.99512	-7.09661	808.85223	-767.78143	-64.87103	757.13104	-770.61139	-40.33538	615.12793	-754.12689	69.59570	571.52856	-773.10516	-37.62522	567.30493	-717.61578	11.99741	525.95416	-804.11328	-51.44308	482.72647	-762.66400	-24.44415	205.05342	-649.14520	-69.19015	160.35928	-605.90448	-74.26192	156.64940	-549.86615	-22.42741	162.00829	-601.32074	26.99074	168.43297	-725.18628	64.81782	219.54607	-675.91528	50.84563	162.32970	-794.96735	34.95255	174.51714	-790.77808	281.64420	874.00195	-683.44220	226.89685	798.58398	-781.38489	273.27542	742.30731	-796.84399	253.40706	638.28973	-751.86493	146.16876	575.14380	-789.21619	249.98569	572.12799	-729.85059	208.33710	538.80457	-817.78430	262.05603	494.25189	-772.21765	230.56438	203.25743	-660.76355	298.88391	156.50963	-623.67749	306.57846	158.76566	-557.08569	254.21182	163.72121	-593.59735	218.50827	173.83630	-718.35394	156.38614	220.69705	-676.50031	174.08015	161.19420	-798.01483	181.13766	182.94527	-528.06921	304.23309	146.42790	-517.88605	-72.88114	143.13190	-875.87378	-78.61735	141.20923	-882.57397	296.14035	144.75305	
